<?xml version="1.0" encoding="us-ascii" standalone="no"?><svg xmlns="http://www.w3.org/2000/svg" xmlns:xlink="http://www.w3.org/1999/xlink" contentStyleType="text/css" height="492px" preserveAspectRatio="none" style="width:870px;height:492px;background:#FFFFFF;" version="1.1" viewBox="0 0 870 492" width="870px" zoomAndPan="magnify"><defs/><g><g id="EnCr&#233;ation"><rect fill="#F1F1F1" height="50.2656" rx="12.5" ry="12.5" style="stroke:#181818;stroke-width:0.5;" width="155" x="61.5" y="7"/><line style="stroke:#181818;stroke-width:0.5;" x1="61.5" x2="216.5" y1="33.2969" y2="33.2969"/><text fill="#000000" font-family="sans-serif" font-size="14" lengthAdjust="spacing" textLength="76" x="101" y="24.9951">EnCr&#233;ation</text><text fill="#000000" font-family="sans-serif" font-size="12" lengthAdjust="spacing" textLength="135" x="66.5" y="49.4355">entry : constructeur()</text></g><g id="EnDestruction"><rect fill="#F1F1F1" height="50.2656" rx="12.5" ry="12.5" style="stroke:#181818;stroke-width:0.5;" width="148" x="371" y="436"/><line style="stroke:#181818;stroke-width:0.5;" x1="371" x2="519" y1="462.2969" y2="462.2969"/><text fill="#000000" font-family="sans-serif" font-size="14" lengthAdjust="spacing" textLength="99" x="395.5" y="453.9951">EnDestruction</text><text fill="#000000" font-family="sans-serif" font-size="12" lengthAdjust="spacing" textLength="128" x="376" y="478.4355">entry : destructeur()</text></g><ellipse cx="16" cy="32" fill="#222222" rx="10" ry="10" style="stroke:#222222;stroke-width:1.0;"/><g id="EnAttenteDeMod&#233;ration"><rect fill="#F1F1F1" height="50" rx="12.5" ry="12.5" style="stroke:#181818;stroke-width:0.5;" width="187" x="251.5" y="7"/><line style="stroke:#181818;stroke-width:0.5;" x1="251.5" x2="438.5" y1="33.2969" y2="33.2969"/><text fill="#000000" font-family="sans-serif" font-size="14" lengthAdjust="spacing" textLength="167" x="261.5" y="24.9951">EnAttenteDeMod&#233;ration</text></g><g id="NonAccept&#233;"><rect fill="#F1F1F1" height="50" rx="12.5" ry="12.5" style="stroke:#181818;stroke-width:0.5;" width="105" x="292.5" y="229"/><line style="stroke:#181818;stroke-width:0.5;" x1="292.5" x2="397.5" y1="255.2969" y2="255.2969"/><text fill="#000000" font-family="sans-serif" font-size="14" lengthAdjust="spacing" textLength="85" x="302.5" y="246.9951">NonAccept&#233;</text></g><g id="Accept&#233;"><rect fill="#F1F1F1" height="50" rx="12.5" ry="12.5" style="stroke:#181818;stroke-width:0.5;" width="77" x="543.5" y="149"/><line style="stroke:#181818;stroke-width:0.5;" x1="543.5" x2="620.5" y1="175.2969" y2="175.2969"/><text fill="#000000" font-family="sans-serif" font-size="14" lengthAdjust="spacing" textLength="57" x="553.5" y="166.9951">Accept&#233;</text></g><g id="Visible"><rect fill="#F1F1F1" height="50" rx="12.5" ry="12.5" style="stroke:#181818;stroke-width:0.5;" width="64" x="619" y="309"/><line style="stroke:#181818;stroke-width:0.5;" x1="619" x2="683" y1="335.2969" y2="335.2969"/><text fill="#000000" font-family="sans-serif" font-size="14" lengthAdjust="spacing" textLength="44" x="629" y="326.9951">Visible</text></g><g id="NonVisible"><rect fill="#F1F1F1" height="50" rx="12.5" ry="12.5" style="stroke:#181818;stroke-width:0.5;" width="92" x="718" y="309"/><line style="stroke:#181818;stroke-width:0.5;" x1="718" x2="810" y1="335.2969" y2="335.2969"/><text fill="#000000" font-family="sans-serif" font-size="14" lengthAdjust="spacing" textLength="72" x="728" y="326.9951">NonVisible</text></g><ellipse cx="325" cy="461" fill="none" rx="11" ry="11" style="stroke:#222222;stroke-width:1.0;"/><ellipse cx="325" cy="461" fill="#222222" rx="6" ry="6" style="stroke:#222222;stroke-width:1.0;"/><!--link *start* to EnCr?ation--><g id="link_*start*_EnCr&#233;ation"><path d="M26.09,32 C37.85,32 43.61,32 55.37,32 " fill="none" id="*start*-to-EnCr&#233;ation" style="stroke:#181818;stroke-width:1.0;"/><polygon fill="#181818" points="61.37,32,52.37,28,56.37,32,52.37,36,61.37,32" style="stroke:#181818;stroke-width:1.0;"/></g><!--link EnCr?ation to EnAttenteDeMod?ration--><g id="link_EnCr&#233;ation_EnAttenteDeMod&#233;ration"><path d="M216.65,32 C228.27,32 233.88,32 245.5,32 " fill="none" id="EnCr&#233;ation-to-EnAttenteDeMod&#233;ration" style="stroke:#181818;stroke-width:1.0;"/><polygon fill="#181818" points="251.5,32,242.5,28,246.5,32,242.5,36,251.5,32" style="stroke:#181818;stroke-width:1.0;"/></g><!--link EnAttenteDeMod?ration to NonAccept?--><g id="link_EnAttenteDeMod&#233;ration_NonAccept&#233;"><path d="M345,57.38 C345,99.78 345,180.6 345,222.84 " fill="none" id="EnAttenteDeMod&#233;ration-to-NonAccept&#233;" style="stroke:#181818;stroke-width:1.0;"/><polygon fill="#181818" points="345,228.84,349,219.84,345,223.84,341,219.84,345,228.84" style="stroke:#181818;stroke-width:1.0;"/><text fill="#000000" font-family="sans-serif" font-size="13" lengthAdjust="spacing" textLength="120" x="346" y="100.0669">mod&#233;rateur refuse</text><text fill="#000000" font-family="sans-serif" font-size="13" lengthAdjust="spacing" textLength="63" x="374.5" y="115.1997">/ refuser()</text></g><!--link EnAttenteDeMod?ration to EnDestruction--><g id="link_EnAttenteDeMod&#233;ration_EnDestruction"><path d="M296.45,57.14 C222.18,97.65 93.23,184.25 136,279 C171.11,356.78 205.92,363.63 280,406 C296.09,415.2 329.0663,426.2952 364.9563,437.1352 " fill="none" id="EnAttenteDeMod&#233;ration-to-EnDestruction" style="stroke:#181818;stroke-width:1.0;"/><polygon fill="#181818" points="370.7,438.87,363.2409,432.4386,365.9136,437.4243,360.9279,440.097,370.7,438.87" style="stroke:#181818;stroke-width:1.0;"/><text fill="#000000" font-family="sans-serif" font-size="13" lengthAdjust="spacing" textLength="137" x="137" y="258.5669">demande destruction</text></g><!--link EnAttenteDeMod?ration to Accept?--><g id="link_EnAttenteDeMod&#233;ration_Accept&#233;"><path d="M413.22,57.1 C433.67,65.44 455.77,75.59 475,87 C504.93,104.75 531.0514,126.2261 551.8214,144.8361 " fill="none" id="EnAttenteDeMod&#233;ration-to-Accept&#233;" style="stroke:#181818;stroke-width:1.0;"/><polygon fill="#181818" points="556.29,148.84,552.2563,139.855,552.5661,145.5034,546.9178,145.8132,556.29,148.84" style="stroke:#181818;stroke-width:1.0;"/><text fill="#000000" font-family="sans-serif" font-size="13" lengthAdjust="spacing" textLength="131" x="520" y="100.0669">mod&#233;rateur accepte</text><text fill="#000000" font-family="sans-serif" font-size="13" lengthAdjust="spacing" textLength="74" x="548.5" y="115.1997">/ accepter()</text></g><!--link Accept? to Visible--><g id="link_Accept&#233;_Visible"><path d="M592.63,199.34 C605.63,229.12 625.1083,273.7217 638.0683,303.3917 " fill="none" id="Accept&#233;-to-Visible" style="stroke:#181818;stroke-width:1.0;"/><polygon fill="#181818" points="640.47,308.89,640.533,299.0413,638.4686,304.308,633.2019,302.2436,640.47,308.89" style="stroke:#181818;stroke-width:1.0;"/></g><!--link Accept? to NonVisible--><g id="link_Accept&#233;_NonVisible"><path d="M610.04,199.34 C644.34,229.12 697.519,275.2868 731.699,304.9568 " fill="none" id="Accept&#233;-to-NonVisible" style="stroke:#181818;stroke-width:1.0;"/><polygon fill="#181818" points="736.23,308.89,732.0556,299.9696,732.4541,305.6124,726.8113,306.0109,736.23,308.89" style="stroke:#181818;stroke-width:1.0;"/><text fill="#000000" font-family="sans-serif" font-size="13" lengthAdjust="spacing" textLength="105" x="701" y="251.0669">utilisateur cache</text><text fill="#000000" font-family="sans-serif" font-size="13" lengthAdjust="spacing" textLength="61" x="723" y="266.1997">/ cacher()</text></g><!--link NonAccept? to EnDestruction--><g id="link_NonAccept&#233;_EnDestruction"><path d="M292.46,278.59 C280.69,286.49 269.71,296.55 263,309 C252.46,328.56 251.73,339.85 263,359 C286.28,398.55 325.6682,421.5348 365.0782,436.8648 " fill="none" id="NonAccept&#233;-to-EnDestruction" style="stroke:#181818;stroke-width:1.0;"/><polygon fill="#181818" points="370.67,439.04,363.7323,432.0494,366.0101,437.2274,360.8321,439.5052,370.67,439.04" style="stroke:#181818;stroke-width:1.0;"/><text fill="#000000" font-family="sans-serif" font-size="13" lengthAdjust="spacing" textLength="137" x="264" y="338.5669">demande destruction</text></g><!--link Accept? to EnDestruction--><g id="link_Accept&#233;_EnDestruction"><path d="M551.58,199.08 C523.16,223.48 482.17,263.97 462,309 C443.34,350.65 441.9106,398.9744 443.0906,429.8144 " fill="none" id="Accept&#233;-to-EnDestruction" style="stroke:#181818;stroke-width:1.0;"/><polygon fill="#181818" points="443.32,435.81,446.973,426.6636,443.1288,430.8137,438.9788,426.9695,443.32,435.81" style="stroke:#181818;stroke-width:1.0;"/><text fill="#000000" font-family="sans-serif" font-size="13" lengthAdjust="spacing" textLength="137" x="463" y="338.5669">demande destruction</text></g><!--link Visible to EnDestruction--><g id="link_Visible_EnDestruction"><path d="M618.89,354.18 C601.69,364.46 580.17,377.38 561,389 C535.35,404.54 511.7248,419.0033 489.2548,432.7833 " fill="none" id="Visible-to-EnDestruction" style="stroke:#181818;stroke-width:1.0;"/><polygon fill="#181818" points="484.14,435.92,493.9033,434.6248,488.4023,433.3061,489.721,427.8051,484.14,435.92" style="stroke:#181818;stroke-width:1.0;"/><text fill="#000000" font-family="sans-serif" font-size="13" lengthAdjust="spacing" textLength="137" x="562" y="402.0669">demande destruction</text></g><!--link NonVisible to EnDestruction--><g id="link_NonVisible_EnDestruction"><path d="M749.7,359.08 C739.07,374.86 723.13,394.6 704,406 C647.67,439.56 579.6063,451.957 525.1163,456.817 " fill="none" id="NonVisible-to-EnDestruction" style="stroke:#181818;stroke-width:1.0;"/><polygon fill="#181818" points="519.14,457.35,528.4598,460.5346,524.1202,456.9058,527.7491,452.5663,519.14,457.35" style="stroke:#181818;stroke-width:1.0;"/><text fill="#000000" font-family="sans-serif" font-size="13" lengthAdjust="spacing" textLength="137" x="725" y="402.0669">demande destruction</text></g><!--reverse link *end* to EnDestruction--><g id="link_*end*_EnDestruction"><path d="M342.25,461 C353.72,461 359.19,461 370.66,461 " fill="none" id="*end*-backto-EnDestruction" style="stroke:#181818;stroke-width:1.0;"/><polygon fill="#181818" points="336.25,461,345.25,465,341.25,461,345.25,457,336.25,461" style="stroke:#181818;stroke-width:1.0;"/></g><!--SRC=[bP8zJiGm48LxdsAwx295z5iWhJPqBAA11YYCFKai9SvYZmkEm2reSmvV33j_yY9-GkNH-7jltbZE2iKhmziMGIAqNDHA8_WFy3rnih2vQxYc- -FDDcCiEtIwL9Kpd5IdGTJS44AGdshrwZ0I_dsG8G4PhgsAeCsO3Ls4QtqmlX_5Eq1DvYsS8X1ad21qPhDTq0B7xZaiCMNPuyKpv4PLDULNgJrBHoN0dYWuOO77JlhUpEntRSY3uhRJUo7mHBuFmzlfDWm7WwMp-AGlfoh6-SNewpuIMwubBllyaUE747ne3occCiPOuAXyK5QzD0ZdtR3NVB43HwfHTdGKuGSCVaCHtT8dMBl9lmLpcBLyad_zwoPCtc0PVqJuF-mJ]--></g></svg>