<?xml version="1.0" encoding="us-ascii" standalone="no"?><svg xmlns="http://www.w3.org/2000/svg" xmlns:xlink="http://www.w3.org/1999/xlink" contentStyleType="text/css" height="512px" preserveAspectRatio="none" style="width:1276px;height:512px;background:#FFFFFF;" version="1.1" viewBox="0 0 1276 512" width="1276px" zoomAndPan="magnify"><defs/><g><rect fill="#FFFFFF" height="384.0625" style="stroke:#181818;stroke-width:1.0;" width="10" x="660.5" y="112.4297"/><rect fill="#FFFFFF" height="25" style="stroke:#181818;stroke-width:1.0;" width="10" x="665.5" y="173.6953"/><rect fill="#FFFFFF" height="25" style="stroke:#181818;stroke-width:1.0;" width="10" x="665.5" y="266.9609"/><rect fill="#FFFFFF" height="25" style="stroke:#181818;stroke-width:1.0;" width="10" x="665.5" y="360.2266"/><rect fill="#FFFFFF" height="14" style="stroke:#181818;stroke-width:1.0;" width="10" x="1105.5" y="445.4922"/><rect fill="none" height="361.0625" style="stroke:#000000;stroke-width:1.5;" width="695" x="575" y="127.4297"/><rect fill="none" height="260.7969" style="stroke:#000000;stroke-width:1.5;" width="675" x="585" y="220.6953"/><rect fill="none" height="160.5313" style="stroke:#000000;stroke-width:1.5;" width="655" x="595" y="313.9609"/><rect fill="none" height="60.2656" style="stroke:#000000;stroke-width:1.5;" width="635" x="605" y="407.2266"/><line style="stroke:#181818;stroke-width:0.5;stroke-dasharray:5.0,5.0;" x1="44" x2="44" y1="81.2969" y2="505.4922"/><line style="stroke:#181818;stroke-width:0.5;stroke-dasharray:5.0,5.0;" x1="665" x2="665" y1="81.2969" y2="505.4922"/><line style="stroke:#181818;stroke-width:0.5;stroke-dasharray:5.0,5.0;" x1="1110" x2="1110" y1="81.2969" y2="505.4922"/><text fill="#000000" font-family="sans-serif" font-size="14" lengthAdjust="spacing" text-decoration="underline" textLength="73" x="5" y="77.9951">:Utilisateur</text><ellipse cx="44.5" cy="13.5" fill="#FFFFFF" rx="8" ry="8" style="stroke:#181818;stroke-width:0.5;"/><path d="M44.5,21.5 L44.5,48.5 M31.5,29.5 L57.5,29.5 M44.5,48.5 L31.5,63.5 M44.5,48.5 L57.5,63.5 " fill="none" style="stroke:#181818;stroke-width:0.5;"/><rect fill="#FFFFFF" height="30.2969" rx="2.5" ry="2.5" style="stroke:#181818;stroke-width:0.5;" width="101" x="615" y="50"/><text fill="#000000" font-family="sans-serif" font-size="14" lengthAdjust="spacing" text-decoration="underline" textLength="87" x="622" y="69.9951">mn:Minisocs</text><rect fill="#FFFFFF" height="30.2969" rx="2.5" ry="2.5" style="stroke:#181818;stroke-width:0.5;" width="127" x="1047" y="50"/><text fill="#000000" font-family="sans-serif" font-size="14" lengthAdjust="spacing" text-decoration="underline" textLength="113" x="1054" y="69.9951">mb:Membership</text><rect fill="#FFFFFF" height="384.0625" style="stroke:#181818;stroke-width:1.0;" width="10" x="660.5" y="112.4297"/><rect fill="#FFFFFF" height="25" style="stroke:#181818;stroke-width:1.0;" width="10" x="665.5" y="173.6953"/><rect fill="#FFFFFF" height="25" style="stroke:#181818;stroke-width:1.0;" width="10" x="665.5" y="266.9609"/><rect fill="#FFFFFF" height="25" style="stroke:#181818;stroke-width:1.0;" width="10" x="665.5" y="360.2266"/><rect fill="#FFFFFF" height="14" style="stroke:#181818;stroke-width:1.0;" width="10" x="1105.5" y="445.4922"/><polygon fill="#181818" points="648.5,108.4297,658.5,112.4297,648.5,116.4297,652.5,112.4297" style="stroke:#181818;stroke-width:1.0;"/><line style="stroke:#181818;stroke-width:1.0;" x1="44.5" x2="654.5" y1="112.4297" y2="112.4297"/><text fill="#000000" font-family="sans-serif" font-size="13" lengthAdjust="spacing" textLength="597" x="51.5" y="107.3638">ajouterMembreaReseausocial(utilisateurquiAjoute,utilisateuraAjouter,pseudo_rs,reseausocial)</text><path d="M575,127.4297 L645,127.4297 L645,134.5625 L635,144.5625 L575,144.5625 L575,127.4297 " fill="#EEEEEE" style="stroke:#000000;stroke-width:1.5;"/><rect fill="none" height="361.0625" style="stroke:#000000;stroke-width:1.5;" width="695" x="575" y="127.4297"/><text fill="#000000" font-family="sans-serif" font-size="13" font-weight="bold" lengthAdjust="spacing" textLength="25" x="590" y="140.4966">opt</text><text fill="#000000" font-family="sans-serif" font-size="11" font-weight="bold" lengthAdjust="spacing" textLength="544" x="660" y="139.6401">[utilisateurquiAjoute,utilisateuraAjouter,pseudo_rs,reseausocial non null &#8743; non vide]</text><line style="stroke:#181818;stroke-width:1.0;" x1="670.5" x2="717.5" y1="160.6953" y2="160.6953"/><line style="stroke:#181818;stroke-width:1.0;" x1="717.5" x2="717.5" y1="160.6953" y2="173.6953"/><line style="stroke:#181818;stroke-width:1.0;" x1="676.5" x2="717.5" y1="173.6953" y2="173.6953"/><polygon fill="#181818" points="686.5,169.6953,676.5,173.6953,686.5,177.6953,682.5,173.6953" style="stroke:#181818;stroke-width:1.0;"/><text fill="#000000" font-family="sans-serif" font-size="13" lengthAdjust="spacing" textLength="301" x="682.5" y="155.6294">rs=chercherReseauSocial(nom): Reseau_social</text><line style="stroke:#181818;stroke-width:1.0;stroke-dasharray:2.0,2.0;" x1="675.5" x2="717.5" y1="197.6953" y2="197.6953"/><line style="stroke:#181818;stroke-width:1.0;stroke-dasharray:2.0,2.0;" x1="717.5" x2="717.5" y1="197.6953" y2="210.6953"/><line style="stroke:#181818;stroke-width:1.0;stroke-dasharray:2.0,2.0;" x1="670.5" x2="717.5" y1="210.6953" y2="210.6953"/><polygon fill="#181818" points="680.5,206.6953,670.5,210.6953,680.5,214.6953,676.5,210.6953" style="stroke:#181818;stroke-width:1.0;"/><path d="M585,220.6953 L655,220.6953 L655,227.8281 L645,237.8281 L585,237.8281 L585,220.6953 " fill="#EEEEEE" style="stroke:#000000;stroke-width:1.5;"/><rect fill="none" height="260.7969" style="stroke:#000000;stroke-width:1.5;" width="675" x="585" y="220.6953"/><text fill="#000000" font-family="sans-serif" font-size="13" font-weight="bold" lengthAdjust="spacing" textLength="25" x="600" y="233.7622">opt</text><text fill="#000000" font-family="sans-serif" font-size="11" font-weight="bold" lengthAdjust="spacing" textLength="76" x="670" y="232.9058">[rs != NULL]</text><line style="stroke:#181818;stroke-width:1.0;" x1="670.5" x2="717.5" y1="253.9609" y2="253.9609"/><line style="stroke:#181818;stroke-width:1.0;" x1="717.5" x2="717.5" y1="253.9609" y2="266.9609"/><line style="stroke:#181818;stroke-width:1.0;" x1="676.5" x2="717.5" y1="266.9609" y2="266.9609"/><polygon fill="#181818" points="686.5,262.9609,676.5,266.9609,686.5,270.9609,682.5,266.9609" style="stroke:#181818;stroke-width:1.0;"/><text fill="#000000" font-family="sans-serif" font-size="13" lengthAdjust="spacing" textLength="355" x="682.5" y="248.895">verifierUtilisateurQuiAjouteEstActif(UtilisateurQuiAjoute)</text><line style="stroke:#181818;stroke-width:1.0;stroke-dasharray:2.0,2.0;" x1="675.5" x2="717.5" y1="290.9609" y2="290.9609"/><line style="stroke:#181818;stroke-width:1.0;stroke-dasharray:2.0,2.0;" x1="717.5" x2="717.5" y1="290.9609" y2="303.9609"/><line style="stroke:#181818;stroke-width:1.0;stroke-dasharray:2.0,2.0;" x1="670.5" x2="717.5" y1="303.9609" y2="303.9609"/><polygon fill="#181818" points="680.5,299.9609,670.5,303.9609,680.5,307.9609,676.5,303.9609" style="stroke:#181818;stroke-width:1.0;"/><path d="M595,313.9609 L665,313.9609 L665,321.0938 L655,331.0938 L595,331.0938 L595,313.9609 " fill="#EEEEEE" style="stroke:#000000;stroke-width:1.5;"/><rect fill="none" height="160.5313" style="stroke:#000000;stroke-width:1.5;" width="655" x="595" y="313.9609"/><text fill="#000000" font-family="sans-serif" font-size="13" font-weight="bold" lengthAdjust="spacing" textLength="25" x="610" y="327.0278">opt</text><text fill="#000000" font-family="sans-serif" font-size="11" font-weight="bold" lengthAdjust="spacing" textLength="313" x="680" y="326.1714">[UtilisateurQuiAjoute.getEtatCompte() == ACTIF]</text><line style="stroke:#181818;stroke-width:1.0;" x1="670.5" x2="717.5" y1="347.2266" y2="347.2266"/><line style="stroke:#181818;stroke-width:1.0;" x1="717.5" x2="717.5" y1="347.2266" y2="360.2266"/><line style="stroke:#181818;stroke-width:1.0;" x1="676.5" x2="717.5" y1="360.2266" y2="360.2266"/><polygon fill="#181818" points="686.5,356.2266,676.5,360.2266,686.5,364.2266,682.5,360.2266" style="stroke:#181818;stroke-width:1.0;"/><text fill="#000000" font-family="sans-serif" font-size="13" lengthAdjust="spacing" textLength="381" x="682.5" y="342.1606">verifierUtilisateurQuiAjouteModerateur(UtilisateurQuiAjoute)</text><line style="stroke:#181818;stroke-width:1.0;stroke-dasharray:2.0,2.0;" x1="675.5" x2="717.5" y1="384.2266" y2="384.2266"/><line style="stroke:#181818;stroke-width:1.0;stroke-dasharray:2.0,2.0;" x1="717.5" x2="717.5" y1="384.2266" y2="397.2266"/><line style="stroke:#181818;stroke-width:1.0;stroke-dasharray:2.0,2.0;" x1="670.5" x2="717.5" y1="397.2266" y2="397.2266"/><polygon fill="#181818" points="680.5,393.2266,670.5,397.2266,680.5,401.2266,676.5,397.2266" style="stroke:#181818;stroke-width:1.0;"/><path d="M605,407.2266 L675,407.2266 L675,414.3594 L665,424.3594 L605,424.3594 L605,407.2266 " fill="#EEEEEE" style="stroke:#000000;stroke-width:1.5;"/><rect fill="none" height="60.2656" style="stroke:#000000;stroke-width:1.5;" width="635" x="605" y="407.2266"/><text fill="#000000" font-family="sans-serif" font-size="13" font-weight="bold" lengthAdjust="spacing" textLength="25" x="620" y="420.2935">opt</text><text fill="#000000" font-family="sans-serif" font-size="11" font-weight="bold" lengthAdjust="spacing" textLength="545" x="690" y="419.437">[utilisateurquiAjoute.getRoleDansReseauSocial(reseausocial) == Role.MODERATEUR]</text><polygon fill="#181818" points="1093.5,441.4922,1103.5,445.4922,1093.5,449.4922,1097.5,445.4922" style="stroke:#181818;stroke-width:1.0;"/><line style="stroke:#181818;stroke-width:1.0;" x1="670.5" x2="1099.5" y1="445.4922" y2="445.4922"/><text fill="#000000" font-family="sans-serif" font-size="13" lengthAdjust="spacing" textLength="416" x="677.5" y="440.4263">mb="create(utilisateuraAjouter,pseudo_rs,Role.SIMPLEMEMBRE)"</text><polygon fill="#181818" points="681.5,455.4922,671.5,459.4922,681.5,463.4922,677.5,459.4922" style="stroke:#181818;stroke-width:1.0;"/><line style="stroke:#181818;stroke-width:1.0;stroke-dasharray:2.0,2.0;" x1="675.5" x2="1109.5" y1="459.4922" y2="459.4922"/><!--SRC=[fL9jZjem4FtlKqpv4wAb7029IYoaqagafR2eFwE9Cn3l9dRMTj0UeSVelufpS9EUf7R2Hr3PLQL6oeSdRzwyDpF1JE1MOraIP0Jci7-fINA2_g90QTVnF0mO2wPARiIsrcY5ai1pr9R0fLMvSFY0vS8bRvIogNfbvbd82Xqd66hP5WulkAWSuptovwrMjSocgb0QlkV2qesK2RTAtmQpO7ROymAFQZ8oWDnIhGsGROxLfPw1VdROFnr-0hqAOvi8xjmB2hpOTIRH5uHUaepMLXJ2e6TCaXwWWVeIOHrkZoxbA1PI6CND4LpAlp3fAAOo9MroKPrGAJWZgtE_SKSS2gUz96DmIsRGdBW-x1kRne-dwslWpF9Xm3hQuECdLntkxc04-AHgIzhNrOHBCeIr4ocmw7SoNcenQO23JX3Ra1vKXkfC9TeCT2S_PAgoy9ya8DtaP5qKyFl7h-QmyolaBkOjD4OQ7zgCUKxQtws9LMj2gZ8SGHjAMau6ccoj9GFm2jqwV1Z3b_LyxWBNf3lIOYD8ToRzxMGYCjRjdjZqR_qCFTMv2hI5RW67MxAHHJjLPMMf7y9u39FfuyFdDksVrSGg8zs4tjPpKkHxTnPrQpvUr58LD4DfhffvDLulrQE6yTTPj9myHklbaVSaEsrab-cunzrkENllpxqXMpt4YtaKH_7zCWfx9y9kAu5anZeV_kdlFm00]--></g></svg>