<?xml version="1.0" encoding="us-ascii" standalone="no"?><svg xmlns="http://www.w3.org/2000/svg" xmlns:xlink="http://www.w3.org/1999/xlink" contentStyleType="text/css" height="555px" preserveAspectRatio="none" style="width:970px;height:555px;background:#FFFFFF;" version="1.1" viewBox="0 0 970 555" width="970px" zoomAndPan="magnify"><defs/><g><rect fill="#FFFFFF" height="427.1953" style="stroke:#181818;stroke-width:1.0;" width="10" x="346.5" y="112.4297"/><rect fill="#FFFFFF" height="25" style="stroke:#181818;stroke-width:1.0;" width="10" x="351.5" y="173.6953"/><rect fill="#FFFFFF" height="25" style="stroke:#181818;stroke-width:1.0;" width="10" x="351.5" y="266.9609"/><rect fill="#FFFFFF" height="25" style="stroke:#181818;stroke-width:1.0;" width="10" x="351.5" y="360.2266"/><rect fill="#FFFFFF" height="14" style="stroke:#181818;stroke-width:1.0;" width="10" x="720.5" y="445.4922"/><rect fill="#FFFFFF" height="14" style="stroke:#181818;stroke-width:1.0;" width="10" x="855.5" y="488.625"/><rect fill="none" height="404.1953" style="stroke:#000000;stroke-width:1.5;" width="703" x="261" y="127.4297"/><rect fill="none" height="303.9297" style="stroke:#000000;stroke-width:1.5;" width="683" x="271" y="220.6953"/><rect fill="none" height="203.6641" style="stroke:#000000;stroke-width:1.5;" width="663" x="281" y="313.9609"/><rect fill="none" height="103.3984" style="stroke:#000000;stroke-width:1.5;" width="643" x="291" y="407.2266"/><line style="stroke:#181818;stroke-width:0.5;stroke-dasharray:5.0,5.0;" x1="44" x2="44" y1="81.2969" y2="548.625"/><line style="stroke:#181818;stroke-width:0.5;stroke-dasharray:5.0,5.0;" x1="351" x2="351" y1="81.2969" y2="548.625"/><line style="stroke:#181818;stroke-width:0.5;stroke-dasharray:5.0,5.0;" x1="725" x2="725" y1="81.2969" y2="548.625"/><line style="stroke:#181818;stroke-width:0.5;stroke-dasharray:5.0,5.0;" x1="860" x2="860" y1="81.2969" y2="548.625"/><text fill="#000000" font-family="sans-serif" font-size="14" lengthAdjust="spacing" text-decoration="underline" textLength="73" x="5" y="77.9951">:Utilisateur</text><ellipse cx="44.5" cy="13.5" fill="#FFFFFF" rx="8" ry="8" style="stroke:#181818;stroke-width:0.5;"/><path d="M44.5,21.5 L44.5,48.5 M31.5,29.5 L57.5,29.5 M44.5,48.5 L31.5,63.5 M44.5,48.5 L57.5,63.5 " fill="none" style="stroke:#181818;stroke-width:0.5;"/><rect fill="#FFFFFF" height="30.2969" rx="2.5" ry="2.5" style="stroke:#181818;stroke-width:0.5;" width="101" x="301" y="50"/><text fill="#000000" font-family="sans-serif" font-size="14" lengthAdjust="spacing" text-decoration="underline" textLength="87" x="308" y="69.9951">mn:Minisocs</text><rect fill="#FFFFFF" height="30.2969" rx="2.5" ry="2.5" style="stroke:#181818;stroke-width:0.5;" width="123" x="664" y="50"/><text fill="#000000" font-family="sans-serif" font-size="14" lengthAdjust="spacing" text-decoration="underline" textLength="109" x="671" y="69.9951">r:Reseau_social</text><rect fill="#FFFFFF" height="30.2969" rx="2.5" ry="2.5" style="stroke:#181818;stroke-width:0.5;" width="127" x="797" y="50"/><text fill="#000000" font-family="sans-serif" font-size="14" lengthAdjust="spacing" text-decoration="underline" textLength="113" x="804" y="69.9951">mb:Membership</text><rect fill="#FFFFFF" height="427.1953" style="stroke:#181818;stroke-width:1.0;" width="10" x="346.5" y="112.4297"/><rect fill="#FFFFFF" height="25" style="stroke:#181818;stroke-width:1.0;" width="10" x="351.5" y="173.6953"/><rect fill="#FFFFFF" height="25" style="stroke:#181818;stroke-width:1.0;" width="10" x="351.5" y="266.9609"/><rect fill="#FFFFFF" height="25" style="stroke:#181818;stroke-width:1.0;" width="10" x="351.5" y="360.2266"/><rect fill="#FFFFFF" height="14" style="stroke:#181818;stroke-width:1.0;" width="10" x="720.5" y="445.4922"/><rect fill="#FFFFFF" height="14" style="stroke:#181818;stroke-width:1.0;" width="10" x="855.5" y="488.625"/><polygon fill="#181818" points="334.5,108.4297,344.5,112.4297,334.5,116.4297,338.5,112.4297" style="stroke:#181818;stroke-width:1.0;"/><line style="stroke:#181818;stroke-width:1.0;" x1="44.5" x2="340.5" y1="112.4297" y2="112.4297"/><text fill="#000000" font-family="sans-serif" font-size="13" lengthAdjust="spacing" textLength="283" x="51.5" y="107.3638">creerReseausocial(nom,createur,pseudo_rs)</text><path d="M261,127.4297 L331,127.4297 L331,134.5625 L321,144.5625 L261,144.5625 L261,127.4297 " fill="#EEEEEE" style="stroke:#000000;stroke-width:1.5;"/><rect fill="none" height="404.1953" style="stroke:#000000;stroke-width:1.5;" width="703" x="261" y="127.4297"/><text fill="#000000" font-family="sans-serif" font-size="13" font-weight="bold" lengthAdjust="spacing" textLength="25" x="276" y="140.4966">opt</text><text fill="#000000" font-family="sans-serif" font-size="11" font-weight="bold" lengthAdjust="spacing" textLength="296" x="346" y="139.6401">[nom,createur, pseudo_rs non null &#8743; non vide]</text><line style="stroke:#181818;stroke-width:1.0;" x1="356.5" x2="403.5" y1="160.6953" y2="160.6953"/><line style="stroke:#181818;stroke-width:1.0;" x1="403.5" x2="403.5" y1="160.6953" y2="173.6953"/><line style="stroke:#181818;stroke-width:1.0;" x1="362.5" x2="403.5" y1="173.6953" y2="173.6953"/><polygon fill="#181818" points="372.5,169.6953,362.5,173.6953,372.5,177.6953,368.5,173.6953" style="stroke:#181818;stroke-width:1.0;"/><text fill="#000000" font-family="sans-serif" font-size="13" lengthAdjust="spacing" textLength="350" x="368.5" y="155.6294">r=chercherCreateurEstUtilisateur(createur): Utilisateur</text><line style="stroke:#181818;stroke-width:1.0;stroke-dasharray:2.0,2.0;" x1="361.5" x2="403.5" y1="197.6953" y2="197.6953"/><line style="stroke:#181818;stroke-width:1.0;stroke-dasharray:2.0,2.0;" x1="403.5" x2="403.5" y1="197.6953" y2="210.6953"/><line style="stroke:#181818;stroke-width:1.0;stroke-dasharray:2.0,2.0;" x1="356.5" x2="403.5" y1="210.6953" y2="210.6953"/><polygon fill="#181818" points="366.5,206.6953,356.5,210.6953,366.5,214.6953,362.5,210.6953" style="stroke:#181818;stroke-width:1.0;"/><path d="M271,220.6953 L341,220.6953 L341,227.8281 L331,237.8281 L271,237.8281 L271,220.6953 " fill="#EEEEEE" style="stroke:#000000;stroke-width:1.5;"/><rect fill="none" height="303.9297" style="stroke:#000000;stroke-width:1.5;" width="683" x="271" y="220.6953"/><text fill="#000000" font-family="sans-serif" font-size="13" font-weight="bold" lengthAdjust="spacing" textLength="25" x="286" y="233.7622">opt</text><text fill="#000000" font-family="sans-serif" font-size="11" font-weight="bold" lengthAdjust="spacing" textLength="71" x="356" y="232.9058">[r non null]</text><line style="stroke:#181818;stroke-width:1.0;" x1="356.5" x2="403.5" y1="253.9609" y2="253.9609"/><line style="stroke:#181818;stroke-width:1.0;" x1="403.5" x2="403.5" y1="253.9609" y2="266.9609"/><line style="stroke:#181818;stroke-width:1.0;" x1="362.5" x2="403.5" y1="266.9609" y2="266.9609"/><polygon fill="#181818" points="372.5,262.9609,362.5,266.9609,372.5,270.9609,368.5,266.9609" style="stroke:#181818;stroke-width:1.0;"/><text fill="#000000" font-family="sans-serif" font-size="13" lengthAdjust="spacing" textLength="211" x="368.5" y="248.895">verifierCreateurEstActif(createur)</text><line style="stroke:#181818;stroke-width:1.0;stroke-dasharray:2.0,2.0;" x1="361.5" x2="403.5" y1="290.9609" y2="290.9609"/><line style="stroke:#181818;stroke-width:1.0;stroke-dasharray:2.0,2.0;" x1="403.5" x2="403.5" y1="290.9609" y2="303.9609"/><line style="stroke:#181818;stroke-width:1.0;stroke-dasharray:2.0,2.0;" x1="356.5" x2="403.5" y1="303.9609" y2="303.9609"/><polygon fill="#181818" points="366.5,299.9609,356.5,303.9609,366.5,307.9609,362.5,303.9609" style="stroke:#181818;stroke-width:1.0;"/><path d="M281,313.9609 L351,313.9609 L351,321.0938 L341,331.0938 L281,331.0938 L281,313.9609 " fill="#EEEEEE" style="stroke:#000000;stroke-width:1.5;"/><rect fill="none" height="203.6641" style="stroke:#000000;stroke-width:1.5;" width="663" x="281" y="313.9609"/><text fill="#000000" font-family="sans-serif" font-size="13" font-weight="bold" lengthAdjust="spacing" textLength="25" x="296" y="327.0278">opt</text><text fill="#000000" font-family="sans-serif" font-size="11" font-weight="bold" lengthAdjust="spacing" textLength="237" x="366" y="326.1714">[createur.getEtatCompte() == ACTIF]</text><line style="stroke:#181818;stroke-width:1.0;" x1="356.5" x2="403.5" y1="347.2266" y2="347.2266"/><line style="stroke:#181818;stroke-width:1.0;" x1="403.5" x2="403.5" y1="347.2266" y2="360.2266"/><line style="stroke:#181818;stroke-width:1.0;" x1="362.5" x2="403.5" y1="360.2266" y2="360.2266"/><polygon fill="#181818" points="372.5,356.2266,362.5,360.2266,372.5,364.2266,368.5,360.2266" style="stroke:#181818;stroke-width:1.0;"/><text fill="#000000" font-family="sans-serif" font-size="13" lengthAdjust="spacing" textLength="301" x="368.5" y="342.1606">rs=chercherReseauSocial(nom): Reseau_social</text><line style="stroke:#181818;stroke-width:1.0;stroke-dasharray:2.0,2.0;" x1="361.5" x2="403.5" y1="384.2266" y2="384.2266"/><line style="stroke:#181818;stroke-width:1.0;stroke-dasharray:2.0,2.0;" x1="403.5" x2="403.5" y1="384.2266" y2="397.2266"/><line style="stroke:#181818;stroke-width:1.0;stroke-dasharray:2.0,2.0;" x1="356.5" x2="403.5" y1="397.2266" y2="397.2266"/><polygon fill="#181818" points="366.5,393.2266,356.5,397.2266,366.5,401.2266,362.5,397.2266" style="stroke:#181818;stroke-width:1.0;"/><path d="M291,407.2266 L361,407.2266 L361,414.3594 L351,424.3594 L291,424.3594 L291,407.2266 " fill="#EEEEEE" style="stroke:#000000;stroke-width:1.5;"/><rect fill="none" height="103.3984" style="stroke:#000000;stroke-width:1.5;" width="643" x="291" y="407.2266"/><text fill="#000000" font-family="sans-serif" font-size="13" font-weight="bold" lengthAdjust="spacing" textLength="25" x="306" y="420.2935">opt</text><text fill="#000000" font-family="sans-serif" font-size="11" font-weight="bold" lengthAdjust="spacing" textLength="80" x="376" y="419.437">[rs == NULL]</text><polygon fill="#181818" points="708.5,441.4922,718.5,445.4922,708.5,449.4922,712.5,445.4922" style="stroke:#181818;stroke-width:1.0;"/><line style="stroke:#181818;stroke-width:1.0;" x1="356.5" x2="714.5" y1="445.4922" y2="445.4922"/><text fill="#000000" font-family="sans-serif" font-size="13" lengthAdjust="spacing" textLength="164" x="363.5" y="440.4263">r="create(nom,createur)"</text><polygon fill="#181818" points="367.5,455.4922,357.5,459.4922,367.5,463.4922,363.5,459.4922" style="stroke:#181818;stroke-width:1.0;"/><line style="stroke:#181818;stroke-width:1.0;stroke-dasharray:2.0,2.0;" x1="361.5" x2="724.5" y1="459.4922" y2="459.4922"/><polygon fill="#181818" points="843.5,484.625,853.5,488.625,843.5,492.625,847.5,488.625" style="stroke:#181818;stroke-width:1.0;"/><line style="stroke:#181818;stroke-width:1.0;" x1="356.5" x2="849.5" y1="488.625" y2="488.625"/><text fill="#000000" font-family="sans-serif" font-size="13" lengthAdjust="spacing" textLength="418" x="363.5" y="483.5591">mb=ajouterMembership(createur,pseudo_rs, Role.MODERATEUR)</text><polygon fill="#181818" points="367.5,498.625,357.5,502.625,367.5,506.625,363.5,502.625" style="stroke:#181818;stroke-width:1.0;"/><line style="stroke:#181818;stroke-width:1.0;stroke-dasharray:2.0,2.0;" x1="361.5" x2="859.5" y1="502.625" y2="502.625"/><!--SRC=[RL9DZjem55utftXYaqHG3X29IWnGgHAq8sPGbv7ZF8Xd4ZlrSz0SeSVehk8StAGdgPr_c5bOjf-_d_TZVotOIREYG4WHw7hvLQ7a2C5ZpgGvxBQXxtd-IicZE5MQ6Q4ay8nfWs1fPIOitlSoOSb7fKoYtZnw5R9aLXC86xL7YnTSb5RnWV7NarQLJ5SgLnf-PiBW1vGbDqf_3FRyzVN2SzPcao81umOhJO2clfQ37q6GNYylrp-0Ru9C7M5dkq7EXd9jaSmPmYIEeuCHkI3c5EDu0eoW6YBUIDkX2ndjX1IaEBNWGjvZTBH7GbR55YLOtkBUIoNH3ei4DMMYxCGIpt_gXyBEo26t1HP8n4v8i_h6zVLIzuBS3CV5psn7-DptHWN0voysHPXE8R94HDtargGMI5NCRBH6pah2AbMnfj1JfO6RD-WVRLo2hF8S_lt-Mr_ExZTuu6n6PW1wmJFKRgrQcGsPKRU3JZsCO1IsIXfDfQKzW4j4zvOkSczpHYsEuiR3VYPn7DHhrY3PY7QlynEQZM5cfOhIO132OW7BrVEthmsqTwlDDFKbDMrywjjeQxYPUaiVsxRLaBFuVjXkksZheQTJwx2OD9dTZ2QSzDXRGKjrsIMEMYGBzg8gWthuLi7xuSvWhtASxtwiD_lby-Qm3- -rFtK1bAdNRktw3m00]--></g></svg>