<?xml version="1.0" encoding="us-ascii" standalone="no"?><svg xmlns="http://www.w3.org/2000/svg" xmlns:xlink="http://www.w3.org/1999/xlink" contentStyleType="text/css" height="837px" preserveAspectRatio="none" style="width:1476px;height:837px;background:#FFFFFF;" version="1.1" viewBox="0 0 1476 837" width="1476px" zoomAndPan="magnify"><defs/><g><rect fill="#FFFFFF" height="709.2578" style="stroke:#181818;stroke-width:1.0;" width="10" x="385.5" y="112.4297"/><rect fill="#FFFFFF" height="14" style="stroke:#181818;stroke-width:1.0;" width="10" x="713.5" y="213.9609"/><rect fill="#FFFFFF" height="14" style="stroke:#181818;stroke-width:1.0;" width="10" x="713.5" y="433.7578"/><rect fill="#FFFFFF" height="14" style="stroke:#181818;stroke-width:1.0;" width="10" x="713.5" y="501.0234"/><rect fill="#FFFFFF" height="14" style="stroke:#181818;stroke-width:1.0;" width="10" x="833" y="281.2266"/><rect fill="#FFFFFF" height="465.1953" style="stroke:#181818;stroke-width:1.0;" width="10" x="833" y="356.4922"/><rect fill="#FFFFFF" height="106.1328" style="stroke:#181818;stroke-width:1.0;" width="10" x="838" y="652.5547"/><rect fill="#FFFFFF" height="63" style="stroke:#181818;stroke-width:1.0;" width="10" x="843" y="681.6875"/><rect fill="#FFFFFF" height="14" style="stroke:#181818;stroke-width:1.0;" width="10" x="1225" y="390.625"/><rect fill="#FFFFFF" height="229.3984" style="stroke:#181818;stroke-width:1.0;" width="10" x="1225" y="576.2891"/><rect fill="#FFFFFF" height="160.2656" style="stroke:#181818;stroke-width:1.0;" width="10" x="1230" y="618.4219"/><rect fill="none" height="604.2578" style="stroke:#000000;stroke-width:1.5;" width="1200" x="270" y="127.4297"/><rect fill="none" height="573.125" style="stroke:#000000;stroke-width:1.5;" width="1180" x="280" y="151.5625"/><rect fill="none" height="541.9922" style="stroke:#000000;stroke-width:1.5;" width="1160" x="290" y="175.6953"/><rect fill="none" height="467.7266" style="stroke:#000000;stroke-width:1.5;" width="1140" x="300" y="242.9609"/><rect fill="none" height="393.4609" style="stroke:#000000;stroke-width:1.5;" width="1120" x="310" y="310.2266"/><rect fill="none" height="233.9297" style="stroke:#000000;stroke-width:1.5;" width="1100" x="320" y="462.7578"/><rect fill="none" height="159.6641" style="stroke:#000000;stroke-width:1.5;" width="1080" x="330" y="530.0234"/><line style="stroke:#181818;stroke-width:0.5;stroke-dasharray:5.0,5.0;" x1="44" x2="44" y1="81.2969" y2="830.6875"/><line style="stroke:#181818;stroke-width:0.5;stroke-dasharray:5.0,5.0;" x1="390" x2="390" y1="81.2969" y2="830.6875"/><line style="stroke:#181818;stroke-width:0.5;stroke-dasharray:5.0,5.0;" x1="718.5" x2="718.5" y1="81.2969" y2="830.6875"/><line style="stroke:#181818;stroke-width:0.5;stroke-dasharray:5.0,5.0;" x1="837.5" x2="837.5" y1="81.2969" y2="830.6875"/><line style="stroke:#181818;stroke-width:0.5;stroke-dasharray:5.0,5.0;" x1="1230" x2="1230" y1="81.2969" y2="830.6875"/><text fill="#000000" font-family="sans-serif" font-size="14" lengthAdjust="spacing" text-decoration="underline" textLength="73" x="5" y="77.9951">:Utilisateur</text><ellipse cx="44.5" cy="13.5" fill="#FFFFFF" rx="8" ry="8" style="stroke:#181818;stroke-width:0.5;"/><path d="M44.5,21.5 L44.5,48.5 M31.5,29.5 L57.5,29.5 M44.5,48.5 L31.5,63.5 M44.5,48.5 L57.5,63.5 " fill="none" style="stroke:#181818;stroke-width:0.5;"/><rect fill="#FFFFFF" height="30.2969" rx="2.5" ry="2.5" style="stroke:#181818;stroke-width:0.5;" width="101" x="340" y="50"/><text fill="#000000" font-family="sans-serif" font-size="14" lengthAdjust="spacing" text-decoration="underline" textLength="87" x="347" y="69.9951">mn:Minisocs</text><rect fill="#FFFFFF" height="30.2969" rx="2.5" ry="2.5" style="stroke:#181818;stroke-width:0.5;" width="96" x="670.5" y="50"/><text fill="#000000" font-family="sans-serif" font-size="14" lengthAdjust="spacing" text-decoration="underline" textLength="82" x="677.5" y="69.9951">u:Utilisateur</text><rect fill="#FFFFFF" height="30.2969" rx="2.5" ry="2.5" style="stroke:#181818;stroke-width:0.5;" width="123" x="776.5" y="50"/><text fill="#000000" font-family="sans-serif" font-size="14" lengthAdjust="spacing" text-decoration="underline" textLength="109" x="783.5" y="69.9951">r:Reseau_social</text><rect fill="#FFFFFF" height="30.2969" rx="2.5" ry="2.5" style="stroke:#181818;stroke-width:0.5;" width="102" x="1179" y="50"/><text fill="#000000" font-family="sans-serif" font-size="14" lengthAdjust="spacing" text-decoration="underline" textLength="88" x="1186" y="69.9951">_m:Message</text><rect fill="#FFFFFF" height="709.2578" style="stroke:#181818;stroke-width:1.0;" width="10" x="385.5" y="112.4297"/><rect fill="#FFFFFF" height="14" style="stroke:#181818;stroke-width:1.0;" width="10" x="713.5" y="213.9609"/><rect fill="#FFFFFF" height="14" style="stroke:#181818;stroke-width:1.0;" width="10" x="713.5" y="433.7578"/><rect fill="#FFFFFF" height="14" style="stroke:#181818;stroke-width:1.0;" width="10" x="713.5" y="501.0234"/><rect fill="#FFFFFF" height="14" style="stroke:#181818;stroke-width:1.0;" width="10" x="833" y="281.2266"/><rect fill="#FFFFFF" height="465.1953" style="stroke:#181818;stroke-width:1.0;" width="10" x="833" y="356.4922"/><rect fill="#FFFFFF" height="106.1328" style="stroke:#181818;stroke-width:1.0;" width="10" x="838" y="652.5547"/><rect fill="#FFFFFF" height="63" style="stroke:#181818;stroke-width:1.0;" width="10" x="843" y="681.6875"/><rect fill="#FFFFFF" height="14" style="stroke:#181818;stroke-width:1.0;" width="10" x="1225" y="390.625"/><rect fill="#FFFFFF" height="229.3984" style="stroke:#181818;stroke-width:1.0;" width="10" x="1225" y="576.2891"/><rect fill="#FFFFFF" height="160.2656" style="stroke:#181818;stroke-width:1.0;" width="10" x="1230" y="618.4219"/><polygon fill="#181818" points="373.5,108.4297,383.5,112.4297,373.5,116.4297,377.5,112.4297" style="stroke:#181818;stroke-width:1.0;"/><line style="stroke:#181818;stroke-width:1.0;" x1="44.5" x2="379.5" y1="112.4297" y2="112.4297"/><text fill="#000000" font-family="sans-serif" font-size="13" lengthAdjust="spacing" textLength="322" x="51.5" y="107.3638">posterMessage(pseudo_rs, contenu, reseausocial)</text><path d="M270,127.4297 L340,127.4297 L340,134.5625 L330,144.5625 L270,144.5625 L270,127.4297 " fill="#EEEEEE" style="stroke:#000000;stroke-width:1.5;"/><rect fill="none" height="604.2578" style="stroke:#000000;stroke-width:1.5;" width="1200" x="270" y="127.4297"/><text fill="#000000" font-family="sans-serif" font-size="13" font-weight="bold" lengthAdjust="spacing" textLength="25" x="285" y="140.4966">opt</text><text fill="#000000" font-family="sans-serif" font-size="11" font-weight="bold" lengthAdjust="spacing" textLength="190" x="355" y="139.6401">[contenu non null &#8743; non vide]</text><path d="M280,151.5625 L350,151.5625 L350,158.6953 L340,168.6953 L280,168.6953 L280,151.5625 " fill="#EEEEEE" style="stroke:#000000;stroke-width:1.5;"/><rect fill="none" height="573.125" style="stroke:#000000;stroke-width:1.5;" width="1180" x="280" y="151.5625"/><text fill="#000000" font-family="sans-serif" font-size="13" font-weight="bold" lengthAdjust="spacing" textLength="25" x="295" y="164.6294">opt</text><text fill="#000000" font-family="sans-serif" font-size="11" font-weight="bold" lengthAdjust="spacing" textLength="131" x="365" y="163.7729">[pseudo_rs non null]</text><path d="M290,175.6953 L360,175.6953 L360,182.8281 L350,192.8281 L290,192.8281 L290,175.6953 " fill="#EEEEEE" style="stroke:#000000;stroke-width:1.5;"/><rect fill="none" height="541.9922" style="stroke:#000000;stroke-width:1.5;" width="1160" x="290" y="175.6953"/><text fill="#000000" font-family="sans-serif" font-size="13" font-weight="bold" lengthAdjust="spacing" textLength="25" x="305" y="188.7622">opt</text><text fill="#000000" font-family="sans-serif" font-size="11" font-weight="bold" lengthAdjust="spacing" textLength="220" x="375" y="187.9058">[reseausocial non null &#8743; non vide]</text><polygon fill="#181818" points="701.5,209.9609,711.5,213.9609,701.5,217.9609,705.5,213.9609" style="stroke:#181818;stroke-width:1.0;"/><line style="stroke:#181818;stroke-width:1.0;" x1="395.5" x2="707.5" y1="213.9609" y2="213.9609"/><text fill="#000000" font-family="sans-serif" font-size="13" lengthAdjust="spacing" textLength="299" x="402.5" y="208.895">utilisateurquiposte = getUtilisateur(pseudo_rs)</text><polygon fill="#181818" points="406.5,223.9609,396.5,227.9609,406.5,231.9609,402.5,227.9609" style="stroke:#181818;stroke-width:1.0;"/><line style="stroke:#181818;stroke-width:1.0;stroke-dasharray:2.0,2.0;" x1="400.5" x2="717.5" y1="227.9609" y2="227.9609"/><path d="M300,242.9609 L370,242.9609 L370,250.0938 L360,260.0938 L300,260.0938 L300,242.9609 " fill="#EEEEEE" style="stroke:#000000;stroke-width:1.5;"/><rect fill="none" height="467.7266" style="stroke:#000000;stroke-width:1.5;" width="1140" x="300" y="242.9609"/><text fill="#000000" font-family="sans-serif" font-size="13" font-weight="bold" lengthAdjust="spacing" textLength="25" x="315" y="256.0278">opt</text><text fill="#000000" font-family="sans-serif" font-size="11" font-weight="bold" lengthAdjust="spacing" textLength="188" x="385" y="255.1714">[utilisateurquiposte non null]</text><polygon fill="#181818" points="821,277.2266,831,281.2266,821,285.2266,825,281.2266" style="stroke:#181818;stroke-width:1.0;"/><line style="stroke:#181818;stroke-width:1.0;" x1="395.5" x2="827" y1="281.2266" y2="281.2266"/><text fill="#000000" font-family="sans-serif" font-size="13" lengthAdjust="spacing" textLength="227" x="402.5" y="276.1606">rs = getReseauSocial(reseausocial)</text><polygon fill="#181818" points="406.5,291.2266,396.5,295.2266,406.5,299.2266,402.5,295.2266" style="stroke:#181818;stroke-width:1.0;"/><line style="stroke:#181818;stroke-width:1.0;stroke-dasharray:2.0,2.0;" x1="400.5" x2="837" y1="295.2266" y2="295.2266"/><path d="M310,310.2266 L380,310.2266 L380,317.3594 L370,327.3594 L310,327.3594 L310,310.2266 " fill="#EEEEEE" style="stroke:#000000;stroke-width:1.5;"/><rect fill="none" height="393.4609" style="stroke:#000000;stroke-width:1.5;" width="1120" x="310" y="310.2266"/><text fill="#000000" font-family="sans-serif" font-size="13" font-weight="bold" lengthAdjust="spacing" textLength="25" x="325" y="323.2935">opt</text><text fill="#000000" font-family="sans-serif" font-size="11" font-weight="bold" lengthAdjust="spacing" textLength="78" x="395" y="322.437">[rs non null]</text><line style="stroke:#181818;stroke-width:1.0;" x1="838" x2="885" y1="343.4922" y2="343.4922"/><line style="stroke:#181818;stroke-width:1.0;" x1="885" x2="885" y1="343.4922" y2="356.4922"/><line style="stroke:#181818;stroke-width:1.0;" x1="844" x2="885" y1="356.4922" y2="356.4922"/><polygon fill="#181818" points="854,352.4922,844,356.4922,854,360.4922,850,356.4922" style="stroke:#181818;stroke-width:1.0;"/><text fill="#000000" font-family="sans-serif" font-size="13" lengthAdjust="spacing" textLength="378" x="850" y="338.4263">ajouterMessage(contenu, utilisateurquiposte, reseausocial)</text><polygon fill="#181818" points="1213,386.625,1223,390.625,1213,394.625,1217,390.625" style="stroke:#181818;stroke-width:1.0;"/><line style="stroke:#181818;stroke-width:1.0;" x1="843" x2="1219" y1="390.625" y2="390.625"/><text fill="#000000" font-family="sans-serif" font-size="13" lengthAdjust="spacing" textLength="161" x="850" y="385.5591">message = get(contenu)</text><polygon fill="#181818" points="854,400.625,844,404.625,854,408.625,850,404.625" style="stroke:#181818;stroke-width:1.0;"/><line style="stroke:#181818;stroke-width:1.0;stroke-dasharray:2.0,2.0;" x1="848" x2="1229" y1="404.625" y2="404.625"/><polygon fill="#181818" points="701.5,429.7578,711.5,433.7578,701.5,437.7578,705.5,433.7578" style="stroke:#181818;stroke-width:1.0;"/><line style="stroke:#181818;stroke-width:1.0;" x1="395.5" x2="707.5" y1="433.7578" y2="433.7578"/><text fill="#000000" font-family="sans-serif" font-size="13" lengthAdjust="spacing" textLength="204" x="402.5" y="428.6919">etatCompte = getEtatCompte()</text><polygon fill="#181818" points="406.5,443.7578,396.5,447.7578,406.5,451.7578,402.5,447.7578" style="stroke:#181818;stroke-width:1.0;"/><line style="stroke:#181818;stroke-width:1.0;stroke-dasharray:2.0,2.0;" x1="400.5" x2="717.5" y1="447.7578" y2="447.7578"/><path d="M320,462.7578 L390,462.7578 L390,469.8906 L380,479.8906 L320,479.8906 L320,462.7578 " fill="#EEEEEE" style="stroke:#000000;stroke-width:1.5;"/><rect fill="none" height="233.9297" style="stroke:#000000;stroke-width:1.5;" width="1100" x="320" y="462.7578"/><text fill="#000000" font-family="sans-serif" font-size="13" font-weight="bold" lengthAdjust="spacing" textLength="25" x="335" y="475.8247">opt</text><text fill="#000000" font-family="sans-serif" font-size="11" font-weight="bold" lengthAdjust="spacing" textLength="139" x="405" y="474.9683">[etatCompte = ACTIF]</text><polygon fill="#181818" points="701.5,497.0234,711.5,501.0234,701.5,505.0234,705.5,501.0234" style="stroke:#181818;stroke-width:1.0;"/><line style="stroke:#181818;stroke-width:1.0;" x1="395.5" x2="707.5" y1="501.0234" y2="501.0234"/><text fill="#000000" font-family="sans-serif" font-size="13" lengthAdjust="spacing" textLength="231" x="402.5" y="495.9575">role = getRoleDansReseauSocial(rs)</text><polygon fill="#181818" points="406.5,511.0234,396.5,515.0234,406.5,519.0234,402.5,515.0234" style="stroke:#181818;stroke-width:1.0;"/><line style="stroke:#181818;stroke-width:1.0;stroke-dasharray:2.0,2.0;" x1="400.5" x2="717.5" y1="515.0234" y2="515.0234"/><path d="M330,530.0234 L400,530.0234 L400,537.1563 L390,547.1563 L330,547.1563 L330,530.0234 " fill="#EEEEEE" style="stroke:#000000;stroke-width:1.5;"/><rect fill="none" height="159.6641" style="stroke:#000000;stroke-width:1.5;" width="1080" x="330" y="530.0234"/><text fill="#000000" font-family="sans-serif" font-size="13" font-weight="bold" lengthAdjust="spacing" textLength="25" x="345" y="543.0903">opt</text><text fill="#000000" font-family="sans-serif" font-size="11" font-weight="bold" lengthAdjust="spacing" textLength="153" x="415" y="542.2339">[role = SIMPLEMEMBRE]</text><line style="stroke:#181818;stroke-width:1.0;" x1="1230" x2="1277" y1="563.2891" y2="563.2891"/><line style="stroke:#181818;stroke-width:1.0;" x1="1277" x2="1277" y1="563.2891" y2="576.2891"/><line style="stroke:#181818;stroke-width:1.0;" x1="1236" x2="1277" y1="576.2891" y2="576.2891"/><polygon fill="#181818" points="1246,572.2891,1236,576.2891,1246,580.2891,1242,576.2891" style="stroke:#181818;stroke-width:1.0;"/><text fill="#000000" font-family="sans-serif" font-size="13" lengthAdjust="spacing" textLength="134" x="1242" y="558.2231">setStatutEnAttente()</text><line style="stroke:#181818;stroke-width:1.0;" x1="1235" x2="1282" y1="605.4219" y2="605.4219"/><line style="stroke:#181818;stroke-width:1.0;" x1="1282" x2="1282" y1="605.4219" y2="618.4219"/><line style="stroke:#181818;stroke-width:1.0;" x1="1241" x2="1282" y1="618.4219" y2="618.4219"/><polygon fill="#181818" points="1251,614.4219,1241,618.4219,1251,622.4219,1247,618.4219" style="stroke:#181818;stroke-width:1.0;"/><text fill="#000000" font-family="sans-serif" font-size="13" lengthAdjust="spacing" textLength="151" x="1247" y="600.356">SetEtatMesNonVisible()</text><polygon fill="#181818" points="826,648.5547,836,652.5547,826,656.5547,830,652.5547" style="stroke:#181818;stroke-width:1.0;"/><line style="stroke:#181818;stroke-width:1.0;" x1="395.5" x2="832" y1="652.5547" y2="652.5547"/><text fill="#000000" font-family="sans-serif" font-size="13" lengthAdjust="spacing" textLength="229" x="402.5" y="647.4888">getProducteur().submit(notification)</text><polygon fill="#181818" points="831,677.6875,841,681.6875,831,685.6875,835,681.6875" style="stroke:#181818;stroke-width:1.0;"/><line style="stroke:#181818;stroke-width:1.0;" x1="395.5" x2="837" y1="681.6875" y2="681.6875"/><text fill="#000000" font-family="sans-serif" font-size="13" lengthAdjust="spacing" textLength="148" x="402.5" y="676.6216">getProducteur().close()</text><polygon fill="#181818" points="406.5,740.6875,396.5,744.6875,406.5,748.6875,402.5,744.6875" style="stroke:#181818;stroke-width:1.0;"/><line style="stroke:#181818;stroke-width:1.0;stroke-dasharray:2.0,2.0;" x1="400.5" x2="837" y1="744.6875" y2="744.6875"/><polygon fill="#181818" points="406.5,754.6875,396.5,758.6875,406.5,762.6875,402.5,758.6875" style="stroke:#181818;stroke-width:1.0;"/><line style="stroke:#181818;stroke-width:1.0;stroke-dasharray:2.0,2.0;" x1="400.5" x2="832" y1="758.6875" y2="758.6875"/><line style="stroke:#181818;stroke-width:1.0;stroke-dasharray:2.0,2.0;" x1="1240" x2="1282" y1="777.6875" y2="777.6875"/><line style="stroke:#181818;stroke-width:1.0;stroke-dasharray:2.0,2.0;" x1="1282" x2="1282" y1="777.6875" y2="790.6875"/><line style="stroke:#181818;stroke-width:1.0;stroke-dasharray:2.0,2.0;" x1="1235" x2="1282" y1="790.6875" y2="790.6875"/><polygon fill="#181818" points="1245,786.6875,1235,790.6875,1245,794.6875,1241,790.6875" style="stroke:#181818;stroke-width:1.0;"/><line style="stroke:#181818;stroke-width:1.0;stroke-dasharray:2.0,2.0;" x1="1235" x2="1277" y1="804.6875" y2="804.6875"/><line style="stroke:#181818;stroke-width:1.0;stroke-dasharray:2.0,2.0;" x1="1277" x2="1277" y1="804.6875" y2="817.6875"/><line style="stroke:#181818;stroke-width:1.0;stroke-dasharray:2.0,2.0;" x1="1230" x2="1277" y1="817.6875" y2="817.6875"/><polygon fill="#181818" points="1240,813.6875,1230,817.6875,1240,821.6875,1236,817.6875" style="stroke:#181818;stroke-width:1.0;"/><!--SRC=[TLDBRjim5Dph50_PI8QT74100oIs2mI82iDksgL0KxJDX28LVemSeSVehl0vV9EUf4yK9KkkiX0ealDcvisJuWKdUqtAaa71m9nFxuv9oY1P2IBjI_OyYQCedYkvutkdYULA0ZqGRHbWMNNWY8-Z0yVYdL9sgpuYyyPbHP0J36lOLeZdb5V8-4Zesruh9ukv4ah3pmEtRAJaWLgbny5Hl3YVg231JS4C46gPqmQOzTlgecSWASwdr_DlO1_SM7z2ZhY089TsiKbI2y9DdgSlbWjkICsOvpT03BZBITJZhj6bJ3CkkL7K170fhp5kZF8QfDCrCuou7Aau4G7sdrvUfXapXknPAnTX89jkRkJ8A0ZCe6nGPkPtL9zFFYvJZxcVpmn3etTnrEiHRk-n2vXE8OLA6Sjqa4mgmroXSerLL4dBf9k1zhORrvD8LRQz0edJaKu8-FlhZzySyJFnY8wdm_ZZFjKdrQMylNVJQTgVoRlZtYPyWJsplQmlVYUHPjPfwMN6IZiVjO2k1T2Svsl6il6cac6pFSvUAm2H3XpaLRbUV5rc8mwkWqIAigO8Ssoyj0oTT1S7iyJELLcrAIoxVJBmES0zpBy_VMqvSDXQYL2-nhS5aMRO_336WDuyPQldPRRC7jVBg0ok3RCRL79sAHyiElOssijDOmzJ-QRa3sxuLlZha3pAhxGgdF-daycTSTkIsqGgotUS-g_uSp0LojHaJ1RrWxC8RuCdT36s_0C0]--></g></svg>