<?xml version="1.0" encoding="us-ascii" standalone="no"?><svg xmlns="http://www.w3.org/2000/svg" xmlns:xlink="http://www.w3.org/1999/xlink" contentStyleType="text/css" height="926px" preserveAspectRatio="none" style="width:1056px;height:926px;background:#FFFFFF;" version="1.1" viewBox="0 0 1056 926" width="1056px" zoomAndPan="magnify"><defs/><g><!--cluster MiniSocs--><g id="cluster_MiniSocs"><rect fill="none" height="913" rx="2.5" ry="2.5" style="stroke:#181818;stroke-width:1.0;" width="632" x="418" y="7"/><text fill="#000000" font-family="sans-serif" font-size="14" font-weight="bold" lengthAdjust="spacing" textLength="69" x="699.5" y="21.9951">MiniSocs</text></g><g id="elem_ajouter un utilisateur"><ellipse cx="580.1728" cy="224.8346" fill="#FFFFFF" rx="89.6728" ry="20.3346" style="stroke:#000000;stroke-width:0.5;"/><text fill="#000000" font-family="sans-serif" font-size="14" lengthAdjust="spacing" textLength="141" x="509.6728" y="227.6812">ajouter un utilisateur</text></g><g id="elem_lister les utilisateurs"><ellipse cx="579.9744" cy="61.8949" fill="#FFFFFF" rx="87.4744" ry="19.8949" style="stroke:#000000;stroke-width:0.5;"/><text fill="#000000" font-family="sans-serif" font-size="14" lengthAdjust="spacing" textLength="136" x="511.9744" y="64.7416">lister les utilisateurs</text></g><g id="elem_bloquer un compte utilisateur"><ellipse cx="579.9616" cy="142.9923" fill="#FFFFFF" rx="117.9616" ry="25.9923" style="stroke:#000000;stroke-width:0.5;"/><text fill="#000000" font-family="sans-serif" font-size="14" lengthAdjust="spacing" textLength="203" x="478.4616" y="145.839">bloquer un compte utilisateur</text></g><g id="elem_d&#233;sactiver son compte"><ellipse cx="579.7599" cy="629.852" fill="#FFFFFF" rx="97.2599" ry="21.852" style="stroke:#000000;stroke-width:0.5;"/><text fill="#000000" font-family="sans-serif" font-size="14" lengthAdjust="spacing" textLength="158" x="500.7599" y="632.6987">d&#233;sactiver son compte</text></g><g id="elem_Cr&#233;er un r&#233;seau social"><ellipse cx="579.9095" cy="709.0819" fill="#FFFFFF" rx="95.9095" ry="21.5819" style="stroke:#000000;stroke-width:0.5;"/><text fill="#000000" font-family="sans-serif" font-size="14" lengthAdjust="spacing" textLength="155" x="502.4095" y="711.9286">Cr&#233;er un r&#233;seau social</text></g><g id="elem_Ajouter un membre &#224; un r&#233;seau social"><ellipse cx="579.9298" cy="797.086" fill="#FFFFFF" rx="145.9298" ry="31.586" style="stroke:#000000;stroke-width:0.5;"/><text fill="#000000" font-family="sans-serif" font-size="14" lengthAdjust="spacing" textLength="262" x="448.9298" y="799.9326">Ajouter un membre &#224; un r&#233;seau social</text></g><g id="elem_Poster un message"><ellipse cx="580.0368" cy="883.8074" fill="#FFFFFF" rx="87.0368" ry="19.8074" style="stroke:#000000;stroke-width:0.5;"/><text fill="#000000" font-family="sans-serif" font-size="14" lengthAdjust="spacing" textLength="135" x="512.5368" y="886.654">Poster un message</text></g><g id="elem_Ajouter un membre au r&#233;seau social"><ellipse cx="580.212" cy="310.8424" fill="#FFFFFF" rx="139.712" ry="30.3424" style="stroke:#000000;stroke-width:0.5;"/><text fill="#000000" font-family="sans-serif" font-size="14" lengthAdjust="spacing" textLength="249" x="455.712" y="313.6891">Ajouter un membre au r&#233;seau social</text></g><g id="elem_Promouvoir un membre"><ellipse cx="580.0673" cy="399.2135" fill="#FFFFFF" rx="99.0673" ry="22.2135" style="stroke:#000000;stroke-width:0.5;"/><text fill="#000000" font-family="sans-serif" font-size="14" lengthAdjust="spacing" textLength="162" x="499.0673" y="402.0601">Promouvoir un membre</text></g><g id="elem_Moderer message"><ellipse cx="580.1379" cy="475.0276" fill="#FFFFFF" rx="83.1379" ry="19.0276" style="stroke:#000000;stroke-width:0.5;"/><text fill="#000000" font-family="sans-serif" font-size="14" lengthAdjust="spacing" textLength="126" x="516.5914" y="478.0594">Moderer message</text></g><g id="elem_Fermer le r&#233;seau social"><ellipse cx="580.1626" cy="551.0325" fill="#FFFFFF" rx="98.1626" ry="22.0325" style="stroke:#000000;stroke-width:0.5;"/><text fill="#000000" font-family="sans-serif" font-size="14" lengthAdjust="spacing" textLength="160" x="500.1626" y="553.8792">Fermer le r&#233;seau social</text></g><g id="elem_Notifier mod&#233;rateur"><ellipse cx="910.1635" cy="884.1327" fill="#FFFFFF" rx="86.1635" ry="19.6327" style="stroke:#000000;stroke-width:0.5;"/><text fill="#000000" font-family="sans-serif" font-size="14" lengthAdjust="spacing" textLength="133" x="843.6635" y="886.9794">Notifier mod&#233;rateur</text></g><g id="elem_Consommateur de notifications"><ellipse cx="910.0617" cy="225.2123" fill="#FFFFFF" rx="124.0617" ry="27.2123" style="stroke:#000000;stroke-width:0.5;"/><text fill="#000000" font-family="sans-serif" font-size="14" lengthAdjust="spacing" textLength="216" x="802.0617" y="228.059">Consommateur de notifications</text></g><!--entity Administrateur--><g id="elem_Administrateur"><ellipse cx="324" cy="189.5" fill="#F1F1F1" rx="8" ry="8" style="stroke:#181818;stroke-width:0.5;"/><path d="M324,197.5 L324,224.5 M311,205.5 L337,205.5 M324,224.5 L311,239.5 M324,224.5 L337,239.5 " fill="none" style="stroke:#181818;stroke-width:0.5;"/><text fill="#000000" font-family="sans-serif" font-size="14" lengthAdjust="spacing" textLength="100" x="274" y="253.9951">Administrateur</text></g><!--entity Utilisateur--><g id="elem_Utilisateur"><ellipse cx="40" cy="679.5" fill="#F1F1F1" rx="8" ry="8" style="stroke:#181818;stroke-width:0.5;"/><path d="M40,687.5 L40,714.5 M27,695.5 L53,695.5 M40,714.5 L27,729.5 M40,714.5 L53,729.5 " fill="none" style="stroke:#181818;stroke-width:0.5;"/><text fill="#000000" font-family="sans-serif" font-size="14" lengthAdjust="spacing" textLength="68" x="6" y="743.9951">Utilisateur</text></g><!--entity Moderateur--><g id="elem_Moderateur"><ellipse cx="174" cy="407.5" fill="#F1F1F1" rx="8" ry="8" style="stroke:#181818;stroke-width:0.5;"/><path d="M174,415.5 L174,442.5 M161,423.5 L187,423.5 M174,442.5 L161,457.5 M174,442.5 L187,457.5 " fill="none" style="stroke:#181818;stroke-width:0.5;"/><text fill="#000000" font-family="sans-serif" font-size="14" lengthAdjust="spacing" textLength="80" x="134" y="471.9951">Moderateur</text></g><!--reverse link Moderateur to Administrateur--><g id="link_Moderateur_Administrateur"><path d="M210.9275,383.969 C230.8975,354.499 249.13,327.61 274,291 C281.48,279.99 289.6,268.05 297.05,257.11 " fill="none" id="Moderateur-backto-Administrateur" style="stroke:#000000;stroke-width:1.0;"/><polygon fill="none" points="200.83,398.87,215.8945,387.3348,205.9605,380.6031,200.83,398.87" style="stroke:#000000;stroke-width:1.0;"/></g><!--reverse link Utilisateur to Moderateur--><g id="link_Utilisateur_Moderateur"><path d="M67.3503,654.6969 C92.4703,602.9469 129.26,527.14 154.42,475.29 " fill="none" id="Utilisateur-backto-Moderateur" style="stroke:#000000;stroke-width:1.0;"/><polygon fill="none" points="59.49,670.89,72.748,657.317,61.9526,652.0768,59.49,670.89" style="stroke:#000000;stroke-width:1.0;"/></g><!--link Administrateur to ajouter un utilisateur--><g id="link_Administrateur_ajouter un utilisateur"><path d="M374.27,220.16 C407.31,220.94 451.75,221.99 490.78,222.92 " fill="none" id="Administrateur-ajouter un utilisateur" style="stroke:#000000;stroke-width:1.0;"/></g><!--link Administrateur to lister les utilisateurs--><g id="link_Administrateur_lister les utilisateurs"><path d="M342.42,181 C356.77,154 379.67,119.09 410,99 C435.29,82.25 466.93,72.96 495.97,67.84 " fill="none" id="Administrateur-lister les utilisateurs" style="stroke:#000000;stroke-width:1.0;"/></g><!--link Administrateur to bloquer un compte utilisateur--><g id="link_Administrateur_bloquer un compte utilisateur"><path d="M374.13,199.5 C385.81,195.15 398.28,190.72 410,187 C438.75,177.87 470.68,169.19 498.98,161.99 " fill="none" id="Administrateur-bloquer un compte utilisateur" style="stroke:#000000;stroke-width:1.0;"/></g><!--link Utilisateur to d?sactiver son compte--><g id="link_Utilisateur_d&#233;sactiver son compte"><path d="M74.28,698.35 C91.87,693.07 113.94,686.97 134,683 C254.97,659.04 396.73,644.43 487.16,636.78 " fill="none" id="Utilisateur-d&#233;sactiver son compte" style="stroke:#000000;stroke-width:1.0;"/></g><!--link Utilisateur to Cr?er un r?seau social--><g id="link_Utilisateur_Cr&#233;er un r&#233;seau social"><path d="M74.25,709 C154.55,709 361.45,709 483.99,709 " fill="none" id="Utilisateur-Cr&#233;er un r&#233;seau social" style="stroke:#000000;stroke-width:1.0;"/></g><!--link Utilisateur to Ajouter un membre ? un r?seau social--><g id="link_Utilisateur_Ajouter un membre &#224; un r&#233;seau social"><path d="M74.25,714.44 C150.14,726.85 339.1,757.76 463.07,778.04 " fill="none" id="Utilisateur-Ajouter un membre &#224; un r&#233;seau social" style="stroke:#000000;stroke-width:1.0;"/></g><!--link Utilisateur to Poster un message--><g id="link_Utilisateur_Poster un message"><path d="M74.09,721.98 C91.82,728.89 114.07,737.5 134,745 C256.25,791.02 284.68,809.15 410,846 C443.47,855.84 481.3,864.57 512.68,871.17 " fill="none" id="Utilisateur-Poster un message" style="stroke:#000000;stroke-width:1.0;"/></g><!--link Moderateur to Ajouter un membre au r?seau social--><g id="link_Moderateur_Ajouter un membre au r&#233;seau social"><path d="M214.13,420.04 C232.18,412.52 254,403.84 274,397 C344.93,372.75 426.75,349.95 487.78,333.93 " fill="none" id="Moderateur-Ajouter un membre au r&#233;seau social" style="stroke:#000000;stroke-width:1.0;"/></g><!--link Moderateur to Promouvoir un membre--><g id="link_Moderateur_Promouvoir un membre"><path d="M214.1,433.32 C277.08,427.4 402.59,415.59 488.66,407.5 " fill="none" id="Moderateur-Promouvoir un membre" style="stroke:#000000;stroke-width:1.0;"/></g><!--link Moderateur to Moderer message--><g id="link_Moderateur_Moderer message"><path d="M214.1,440.68 C280.64,446.94 417,459.76 502.88,467.84 " fill="none" id="Moderateur-Moderer message" style="stroke:#000000;stroke-width:1.0;"/></g><!--link Moderateur to Fermer le r?seau social--><g id="link_Moderateur_Fermer le r&#233;seau social"><path d="M214.24,450.32 C260.69,465.86 340.51,491.86 410,511 C442.41,519.93 478.65,528.66 509.23,535.69 " fill="none" id="Moderateur-Fermer le r&#233;seau social" style="stroke:#000000;stroke-width:1.0;"/></g><!--link Poster un message to Notifier mod?rateur--><g id="link_Poster un message_Notifier mod&#233;rateur"><path d="M667.18,884 C715.58,884 769.75,884 817.97,884 " fill="none" id="Poster un message-to-Notifier mod&#233;rateur" style="stroke:#000000;stroke-width:1.0;"/><polygon fill="#000000" points="823.97,884,814.97,880,818.97,884,814.97,888,823.97,884" style="stroke:#000000;stroke-width:1.0;"/></g><!--link ajouter un utilisateur to Consommateur de notifications--><g id="link_ajouter un utilisateur_Consommateur de notifications"><path d="M669.76,225 C705.52,225 741.38,225 780,225 " fill="none" id="ajouter un utilisateur-to-Consommateur de notifications" style="stroke:#000000;stroke-width:1.0;"/><polygon fill="#000000" points="786,225,777,221,781,225,777,229,786,225" style="stroke:#000000;stroke-width:1.0;"/></g><!--SRC=[ZLHBRjim4Dtp58Div2no0S4mO3jekgW30qNGDKEEPJOaH-KdHT7sBbrMvz35EhBiIewjebeHC-_DUyCPghWtiWhIEGIDe6G4NUHah8ao6V8msrhfqzFcmsqXHB4clpDL3drExML824olz-PBnaB45-DhoUKWH-HY2D_5IggNAb3sUasM0dpQcuHYHK5Zw2Chon2n386-dWLKel26FP_3- -oaXyK27iXgyLC8Yxi4YI2OQfz0cu2giyTsxzj6MNbqgp62L0bpY50MGdRLOQcTyIOcnd3Y67mwzZz4DiHc-y1mXFcFkxkt5KRSFZ-YNZ5qUU5Q-WWM8NwBgVtj-5AxVgIlE7QpOQcFfE8Dtsjvhbm2YytaPye90sGFUN1oUntCwGvhsSS872VGpvPuneVIYbpDWpzN67LU0dyTHxTDv1iqhyoBT29EWDUXRVhwV8WeCrEKaNO2lXnQTUYU0qBxwx_9Muf_kJ7AglCqJEe0cn3XoXSArvZRG8xoAvaHUG9wYB78lwsym-0EqxhG5yKZAw7bbATaTaQT5knK4chkjsqAKLuqtWrt0RF70x4pGJoqS1ogA9QXoWvzWfZhshPDTvRynBWYR_ZrTIl4r1xsMlmNYUHS_qZqkMdUFdxJVm00]--></g></svg>